# xmcd
#
# Track frame offsets: 
#        150
#        36074
#        53108
#        141201
#        167712
#        191913
#        209561
#        232487
#        259427
#
# Disc length: 3696 seconds
#
# Revision: 0
# Processed by: cddbd v1.5.2PL0 Copyright (c) Steve Scherf et al.
# Submitted via: ExactAudioCopyFreeDBPlugin 1.0
#
DISCID=910e6e09
DTITLE=Amina Claudine Myers - Sama Rou - Songs from my Soul
DYEAR=2016
DGENRE=
TTITLE0=Steal Away - Athan (Call To Prayer) - Faitha (Sura Prayer)
TTITLE1=Down On Me
TTITLE2=Intro: Crossings Part I, II and III
TTITLE3=Ain't Nobody Ever Gonna Hear Us?
TTITLE4=Nobody Knows The Trouble I See
TTITLE5=My Soul'S Been Anchored In The Lord
TTITLE6=Sometimes I Feel Like A Motherless Child
TTITLE7=Go Down Moses
TTITLE8=Thank You
EXTD=
EXTT0=
EXTT1=
EXTT2=
EXTT3=
EXTT4=
EXTT5=
EXTT6=
EXTT7=
EXTT8=
PLAYORDER=
